<svg version="1.2" baseProfile="tiny-ps" xmlns="http://www.w3.org/2000/svg" viewBox="0 0 370 299" width="370" height="299">
	<title>Layer 1</title>
	<style>
		tspan { white-space:pre }
		.shp0 { fill: #2094f3 } 
		.shp1 { fill: #222524 } 
		.shp2 { fill: #000000 } 
		.shp3 { fill: #ffffff } 
		.shp4 { fill: #e5e5e5 } 
		.shp5 { opacity: 0.431;mix-blend-mode: multiply;fill: #808080 } 
		.shp6 { fill: #cccccc } 
		.shp7 { fill: #6cc8de } 
		.shp8 { fill: #53b4c4 } 
		.shp9 { fill: #f2f2f2 } 
		.shp10 { fill: #0f1110 } 
	</style>
	<g id="Layer 1">
		<g id="Folder 1">
			<path id="&lt;Path&gt;" class="shp0" d="M369.63 149.31C369.63 231.78 302.78 298.63 220.31 298.63C137.85 298.63 71 231.78 71 149.31C71 66.85 137.85 0 220.31 0C302.78 0 369.63 66.85 369.63 149.31Z" />
			<g id="&lt;Group&gt;">
				<path id="&lt;Path&gt;" class="shp1" d="M289.37 120.09L270.68 125.58L268.63 118.55L258.87 85.31L277.56 79.82L281.96 94.8L284.34 102.91L289.37 120.09Z" />
				<path id="&lt;Path&gt;" class="shp2" d="M276.19 123.99L257.5 129.48L255.45 122.45L245.68 89.21L264.37 83.72L268.77 98.7L271.15 106.81L276.19 123.99Z" />
				<path id="&lt;Path&gt;" class="shp3" d="M338.14 149.08L338.14 268.96C315.77 264.89 297.66 248.64 290.97 227.36C290.94 227.24 290.87 227.12 290.85 227C289.1 221.31 288.13 215.28 288.13 209.01C288.13 202.76 289.1 196.71 290.85 191.01C290.91 190.83 290.97 190.65 291.03 190.47C295.25 177.26 303.84 166 315.14 158.43C317.43 156.89 319.81 155.5 322.31 154.27C327.26 151.86 332.56 150.11 338.14 149.08Z" />
				<path id="&lt;Path&gt;" class="shp4" d="M277.16 147.61L217.51 165.12L159.97 182L67.89 209.01L64.15 196.23L56.59 170.39L100.11 167.98L268.63 118.55L270.68 125.58L277.16 147.61Z" />
				<path id="&lt;Path&gt;" class="shp1" d="M268.63 118.55L100.11 167.98L56.59 170.39L56.55 170.39L38.35 171.39L10.98 172.9L0.49 137.18L43.14 124.67L252.42 63.27L258.87 85.31L268.63 118.55Z" />
				<path id="&lt;Path&gt;" class="shp1" d="M64.15 196.23L47.09 201.23L38.35 171.39L56.55 170.39L64.15 196.23Z" />
				<path id="&lt;Path&gt;" class="shp5" d="M56.55 170.39L52.16 170.63L59.33 195.11L60.01 197.44L64.15 196.23L56.55 170.39Z" />
				<path id="&lt;Path&gt;" class="shp6" d="M197.17 227.36L219.23 227.36C215.82 230.68 211.58 233.27 206.69 234.69C190.78 239.36 174.14 230.25 169.5 214.37L159.97 182L217.51 165.12L224.95 190.47L197.17 190.47C192.07 190.47 187.46 192.55 184.14 195.86C180.8 199.21 178.75 203.82 178.75 208.91C178.75 219.1 186.98 227.36 197.17 227.36Z" />
				<path id="&lt;Path&gt;" class="shp5" d="M217.51 165.12L159.97 182L162.14 189.38L164.76 188.61L219.68 172.5L217.51 165.12Z" />
				<path id="&lt;Path&gt;" class="shp4" d="M290.85 227C290.87 227.12 290.94 227.24 290.97 227.36L197.17 227.36C186.98 227.36 178.75 219.1 178.75 208.91C178.75 203.82 180.8 199.21 184.14 195.86C187.46 192.55 192.07 190.47 197.17 190.47L291.03 190.47C290.97 190.65 290.91 190.83 290.85 191.01C289.1 196.71 288.13 202.76 288.13 209.01C288.13 215.28 289.1 221.31 290.85 227Z" />
				<path id="&lt;Path&gt;" class="shp5" d="M219.23 227.36L197.17 227.36C187.44 227.36 179.51 219.82 178.82 210.27C178.78 210.72 178.75 211.17 178.75 211.63C178.75 221.82 186.98 230.08 197.17 230.08L216 230.08C217.14 229.24 218.23 228.34 219.23 227.36Z" />
				<path id="&lt;Path&gt;" class="shp5" d="M290.85 227C289.1 221.31 288.13 215.28 288.13 209.01C288.13 202.76 289.1 196.71 290.85 191.01C290.91 190.83 290.97 190.65 291.03 190.47L284.85 190.47C284.79 190.65 284.73 190.83 284.67 191.01C282.92 196.71 281.96 202.76 281.96 209.01C281.96 215.28 282.92 221.31 284.67 227C284.7 227.12 284.76 227.24 284.79 227.36L290.97 227.36C290.94 227.24 290.87 227.12 290.85 227Z" />
				<path id="&lt;Path&gt;" class="shp7" d="M329.67 117.37C328.55 119.06 327.32 120.78 326.05 122.53C320.6 130.03 314.99 137.81 316.98 145.77C317.67 148.51 319.48 152.22 322.31 154.27C319.81 155.5 317.43 156.89 315.14 158.43C312.25 155.41 310.25 151.5 309.29 147.67C306.43 136.15 313.75 126.02 319.66 117.89C320.87 116.23 322.04 114.6 323.1 113C325.72 109.09 326.26 103.09 324.45 97.75C322.92 93.14 319.97 89.74 316.35 88.47C305.73 84.7 300.01 89.7 292.11 96.61C289.64 98.75 287.11 100.95 284.34 102.91L281.96 94.8C283.64 93.47 285.3 92.06 286.89 90.64C294.94 83.65 304.05 75.72 319 81.02C324.91 83.11 329.64 88.29 331.96 95.25C334.52 102.94 333.65 111.44 329.67 117.37Z" />
				<path id="&lt;Path&gt;" class="shp8" d="M327.17 99.68C324.85 92.72 320.12 87.54 314.21 85.46C299.26 80.15 290.15 88.08 282.1 95.07C282.09 95.08 282.07 95.1 282.05 95.12L284.34 102.91C287.11 100.95 289.64 98.75 292.11 96.61C300.01 89.7 305.73 84.7 316.35 88.47C319.97 89.74 322.92 93.14 324.45 97.75C326.26 103.09 325.72 109.09 323.1 113C322.04 114.6 320.87 116.23 319.66 117.89C313.75 126.02 306.43 136.15 309.29 147.67C310.25 151.5 312.25 155.41 315.14 158.43C315.53 158.16 315.93 157.91 316.32 157.66C314.18 155.55 312.78 152.53 312.19 150.2C310.2 142.24 315.81 134.47 321.26 126.96C322.52 125.21 323.76 123.49 324.88 121.81C328.86 115.87 329.73 107.37 327.17 99.68Z" />
				<path id="&lt;Path&gt;" class="shp9" d="M359.99 127.47L359.99 290.36L338.14 290.36L338.14 127.47L359.99 127.47Z" />
				<path id="&lt;Path&gt;" class="shp5" d="M331.88 267.47C333.92 268.07 336.01 268.57 338.14 268.96L338.14 149.08C336.01 149.47 333.92 149.97 331.88 150.57L331.88 267.47Z" />
				<path id="&lt;Path&gt;" class="shp5" d="M271.07 126.93L105.6 175.46L62.07 177.87L62.04 177.87L58.82 178.05L43.83 178.86L40.58 179.04L38.35 171.39L56.56 170.39L56.59 170.39L100.11 167.98L268.63 118.55L270.68 125.58L271.07 126.93Z" />
				<path id="&lt;Path&gt;" class="shp1" d="M208.66 209.02C208.66 214.74 204.02 219.37 198.31 219.37C192.59 219.37 187.96 214.74 187.96 209.02C187.96 203.3 192.59 198.67 198.31 198.67C204.02 198.67 208.66 203.3 208.66 209.02Z" />
				<path id="&lt;Path&gt;" class="shp10" d="M203.39 209.02C203.39 211.83 201.11 214.1 198.31 214.1C195.5 214.1 193.23 211.83 193.23 209.02C193.23 206.21 195.5 203.94 198.31 203.94C201.11 203.94 203.39 206.21 203.39 209.02Z" />
				<g id="&lt;Group&gt;">
					<g id="&lt;Group&gt;">
						<path id="&lt;Path&gt;" class="shp4" d="M245.8 109.36L239.2 87.26L242.04 86.41L248.65 108.51L245.8 109.36Z" />
					</g>
					<g id="&lt;Group&gt;">
						<path id="&lt;Path&gt;" class="shp4" d="M238.85 111.5L232.24 89.4L235.08 88.55L241.69 110.65L238.85 111.5Z" />
					</g>
					<g id="&lt;Group&gt;">
						<path id="&lt;Path&gt;" class="shp4" d="M231.9 113.64L225.29 91.55L228.13 90.7L234.74 112.79L231.9 113.64Z" />
					</g>
					<g id="&lt;Group&gt;">
						<path id="&lt;Path&gt;" class="shp4" d="M224.95 115.79L218.34 93.69L221.18 92.84L227.79 114.94L224.95 115.79Z" />
					</g>
				</g>
				<path id="&lt;Path&gt;" class="shp5" d="M38.35 171.39L56.55 170.39L56.59 170.39L100.11 167.98L268.63 118.55L263.28 100.35C238.33 107.18 198 118.43 148.36 132.94C91.71 149.51 42.42 150.92 0.49 137.18L10.98 172.9L38.35 171.39Z" />
				<g id="&lt;Group&gt;" style="opacity: 0.102">
					<g id="&lt;Group&gt;">
						<path id="&lt;Path&gt;" class="shp4" d="M202.49 85.86C205.35 85.01 208.21 84.16 211.07 83.32C214.12 82.41 212.78 77.65 209.72 78.56C206.86 79.41 204 80.25 201.14 81.1C198.08 82.01 199.43 86.77 202.49 85.86Z" />
					</g>
					<g id="&lt;Group&gt;">
						<path id="&lt;Path&gt;" class="shp4" d="M183.35 91.53C187.53 90.29 191.71 89.05 195.89 87.81C198.94 86.91 197.6 82.15 194.53 83.06C190.35 84.3 186.17 85.53 181.99 86.77C178.94 87.67 180.28 92.43 183.35 91.53Z" />
					</g>
					<g id="&lt;Group&gt;">
						<path id="&lt;Path&gt;" class="shp4" d="M96.64 117.21C123.48 109.33 150.29 101.37 177.1 93.38C180.15 92.47 178.81 87.71 175.75 88.62C148.94 96.62 122.13 104.58 95.29 112.45C92.24 113.35 93.58 118.11 96.64 117.21Z" />
					</g>
				</g>
				<path id="&lt;Path&gt;" class="shp4" d="M346.11 281.87C346.11 283.03 345.17 283.97 344.01 283.97C342.85 283.97 341.91 283.03 341.91 281.87L341.91 138.72C341.91 137.56 342.85 136.62 344.01 136.62C345.17 136.62 346.11 137.56 346.11 138.72L346.11 281.87Z" />
				<path id="&lt;Path&gt;" class="shp3" d="M243.77 196.08C243.77 197.51 242.62 198.67 241.19 198.67L215.95 198.67C214.52 198.67 213.37 197.51 213.37 196.08C213.37 194.66 214.52 193.5 215.95 193.5L241.19 193.5C242.62 193.5 243.77 194.66 243.77 196.08Z" />
				<path id="&lt;Path&gt;" class="shp3" d="M271.07 196.08C271.07 197.51 269.92 198.67 268.49 198.67L251.79 198.67C250.37 198.67 249.21 197.51 249.21 196.08C249.21 194.66 250.37 193.5 251.79 193.5L268.49 193.5C269.92 193.5 271.07 194.66 271.07 196.08Z" />
			</g>
		</g>
	</g>
</svg>